<mxfile host="app.diagrams.net" modified="2024-03-24T09:33:39.811Z" agent="Mozilla/5.0 (Windows NT 10.0; Win64; x64) AppleWebKit/537.36 (KHTML, like Gecko) Chrome/122.0.0.0 Safari/537.36" version="24.0.4" etag="wxsJ3gTGu5WTe2rd3ShI" type="github">
  <diagram name="Page-1" id="mP5N39nj6gE5HnP7JVjV">
    <mxGraphModel>
      <root>
        <mxCell id="0" />
        <mxCell id="1" parent="0" />
      </root>
    </mxGraphModel>
  </diagram>
</mxfile>
